<svg width="38" height="62" viewBox="0 0 38 62" fill="none" xmlns="http://www.w3.org/2000/svg">
<path d="M3.46326 0H15.375C16.8437 11.0653 13.9581 18.2505 6.95007 29.9695C-1.91651 44.7965 7.5896 48.0619 17.0834 41.6418C20.2977 39.4682 20.8194 38.8723 23.3224 37.453C24.2568 39.7508 25.474 42.1605 26.9699 44.8574C25.5961 45.1835 24.6768 45.4035 23.9952 45.5691C23.761 45.628 22.7577 45.8818 21.5259 46.1936L21.5248 46.1938L21.521 46.1948C19.3223 46.7512 16.3982 47.4911 15.8167 47.6357C7.59338 49.6811 -9.10231e-05 44.7965 0 37.5408C5.80415e-05 32.9144 0.618391 30.2118 1.48883 26.4073C1.98355 24.2451 2.55971 21.7268 3.15008 18.2972C4.26669 11.8104 4.48145 6.44847 3.46326 0Z" fill="black"/>
<path d="M32.2306 44.022L32.2503 44.1088C34.2817 44.0337 36.2262 44.2115 38 44.6105V33.4202C35.1876 33.1852 32.8008 33.3905 30.401 34.1069C30.5109 35.0223 30.6459 35.9573 30.8042 36.9228L30.8723 37.3322L30.8735 37.3404L30.9125 37.5689L30.9617 37.8525L31.0032 38.0889L31.051 38.3578C31.1129 38.7011 31.175 39.0346 31.2372 39.3593C31.5724 41.1106 31.9095 42.6023 32.2183 43.968L32.2221 43.9853L32.2249 43.9967L32.2266 44.0047L32.228 44.011L32.2306 44.022Z" fill="black"/>
<path d="M28.144 0.175323C27.3262 3.69027 26.8977 5.5318 23.4167 6.44954C27.0197 7.57121 27.5334 8.68586 28.1456 11.8335C28.596 8.69287 29.2715 7.34687 33.5501 6.44954C29.309 5.43975 28.7545 3.62109 28.1456 0.168213L28.144 0.175323Z" fill="black"/>
<path fill-rule="evenodd" clip-rule="evenodd" d="M22.2987 34.615C22.5901 35.55 22.9315 36.4917 23.3224 37.453C24.2568 39.7508 25.474 42.1605 26.97 44.8574C27.0736 45.0442 27.1785 45.2322 27.2848 45.4218C27.4156 45.655 27.5482 45.8904 27.6831 46.1282L27.8558 46.4323C34.7355 58.5118 26.6095 60.8668 19.9934 55.9417C13.3773 51.0166 10.931 49.6967 8.21678 50.0122V57.5834C8.21678 57.5834 11.6318 59.3187 13.9469 60.1072C17.691 61.3823 20.5819 62 23.8993 62C27.2167 62 33.55 59.4583 33.55 53.547C33.55 50.9962 33.2742 48.987 32.8589 46.9074C32.6965 46.0945 32.5125 45.2697 32.3157 44.3984L32.2503 44.1087L32.2307 44.022L32.228 44.011L32.2266 44.0046L32.2249 43.9967L32.2222 43.9852L32.2183 43.968C31.9095 42.6023 31.5724 41.1106 31.2372 39.3593C31.1751 39.0346 31.1129 38.7011 31.051 38.3578L31.0033 38.0888L30.9617 37.8525L30.9125 37.5688L30.8735 37.3404L30.8723 37.3322L30.8043 36.9228C30.6459 35.9573 30.511 35.0223 30.401 34.1069C29.6327 27.7128 30.0805 22.2752 32.2784 14.0488H22.9417C20.6124 22.8894 20.4277 28.6131 22.2987 34.615Z" fill="black"/>
</svg>
